<svg width="24" height="24" viewBox="0 0 24 24" fill="none" xmlns="http://www.w3.org/2000/svg">
<path d="M22.1538 0H1.84615C1.35652 0 0.886947 0.229869 0.540726 0.63904C0.194505 1.04821 0 1.60316 0 2.18182V21.8182C0 22.3968 0.194505 22.9518 0.540726 23.361C0.886947 23.7701 1.35652 24 1.84615 24H22.1538C22.6435 24 23.1131 23.7701 23.4593 23.361C23.8055 22.9518 24 22.3968 24 21.8182V2.18182C24 1.60316 23.8055 1.04821 23.4593 0.63904C23.1131 0.229869 22.6435 0 22.1538 0ZM22.1538 21.8182H1.84615V2.18182H22.1538V21.8182ZM18.4615 7.63636C18.4615 7.92569 18.3643 8.20317 18.1912 8.40775C18.0181 8.61234 17.7833 8.72727 17.5385 8.72727H6.46154C6.21672 8.72727 5.98194 8.61234 5.80882 8.40775C5.63571 8.20317 5.53846 7.92569 5.53846 7.63636C5.53846 7.34704 5.63571 7.06956 5.80882 6.86497C5.98194 6.66039 6.21672 6.54545 6.46154 6.54545H17.5385C17.7833 6.54545 18.0181 6.66039 18.1912 6.86497C18.3643 7.06956 18.4615 7.34704 18.4615 7.63636ZM18.4615 12C18.4615 12.2893 18.3643 12.5668 18.1912 12.7714C18.0181 12.976 17.7833 13.0909 17.5385 13.0909H6.46154C6.21672 13.0909 5.98194 12.976 5.80882 12.7714C5.63571 12.5668 5.53846 12.2893 5.53846 12C5.53846 11.7107 5.63571 11.4332 5.80882 11.2286C5.98194 11.024 6.21672 10.9091 6.46154 10.9091H17.5385C17.7833 10.9091 18.0181 11.024 18.1912 11.2286C18.3643 11.4332 18.4615 11.7107 18.4615 12ZM18.4615 16.3636C18.4615 16.653 18.3643 16.9304 18.1912 17.135C18.0181 17.3396 17.7833 17.4545 17.5385 17.4545H6.46154C6.21672 17.4545 5.98194 17.3396 5.80882 17.135C5.63571 16.9304 5.53846 16.653 5.53846 16.3636C5.53846 16.0743 5.63571 15.7968 5.80882 15.5922C5.98194 15.3877 6.21672 15.2727 6.46154 15.2727H17.5385C17.7833 15.2727 18.0181 15.3877 18.1912 15.5922C18.3643 15.7968 18.4615 16.0743 18.4615 16.3636Z" fill="white"/>
</svg>
