<svg width="39" height="63" viewBox="0 0 39 63" fill="none" xmlns="http://www.w3.org/2000/svg">
<path d="M12.9032 34.6144C13.0368 27.8122 22.9341 27.1798 22.9341 34.0162L22.9667 44.8302C22.9357 53.8791 13.4191 53.2794 12.9374 45.4284L12.9032 34.6144Z" stroke="white" stroke-width="1.55373" stroke-linecap="round" stroke-linejoin="round"/>
<path d="M16.2374 51.3217C12.7446 50.9053 10.8817 48.5094 11.7782 45.1844L14.7411 34.7698C15.1296 33.185 15.7386 31.8317 16.5699 30.7114M21.9101 20.5143C28.9298 18.7679 39.9582 25.5049 36.9812 37.6146L34.169 48.0619C31.5914 57.0938 26.4003 61.8016 18.6161 61.901C25.3531 60.5042 31.6084 55.3971 30.642 45.5837L30.611 34.7698C30.8751 22.0618 21.3274 19.9161 18.8166 19.9316" stroke="white" stroke-width="1.55373" stroke-linecap="round" stroke-linejoin="round"/>
<path d="M23.3008 61.1645C6.04972 63.7437 0.743729 54.2939 1.00942 45.4284V9.06482C1.00942 5.52697 2.25706 3.75883 4.75391 3.75883L10.1593 3.80855C12.1668 3.80855 13.1254 5.17738 13.0369 7.91661V20.9089C16.6633 19.0786 18.5433 18.3965 23.2169 19.1951L26.7936 7.5173C27.426 5.06707 26.8324 3.4543 25.013 2.67743L19.2083 1.0631C17.1449 0.708853 15.7807 1.84618 15.1157 4.47354L13.1689 11.644" stroke="white" stroke-width="1.55373" stroke-linecap="round" stroke-linejoin="round"/>
</svg>
