<svg width="21" height="20" viewBox="0 0 21 20" fill="none" xmlns="http://www.w3.org/2000/svg">
<path d="M11.0869 19.2201L9.5217 17.8622L11.0869 16.5043L12.6521 17.8622L11.0869 19.2201ZM7.48691 17.8622L6.39126 16.9117L9.46953 14.2412L10.5652 15.1917L7.48691 17.8622ZM14.2174 16.5043L12.6521 15.1465L14.2174 13.7886L15.7826 15.1465L14.2174 16.5043ZM4.82604 16.5043L3.26081 15.1465L4.82604 13.7886L6.39126 15.1465L4.82604 16.5043ZM5.86952 12.8834C4.2869 12.8834 2.9349 12.3969 1.81351 11.4241C0.692112 10.4513 0.131067 9.27808 0.130371 7.90452C0.130371 6.65227 0.608633 5.55844 1.56516 4.62302C2.52168 3.6876 3.70429 3.13691 5.11299 2.97095C5.66952 2.11097 6.43056 1.43566 7.39613 0.945019C8.3617 0.454378 9.41805 0.209359 10.5652 0.209962C12.1304 0.209962 13.4914 0.643875 14.6483 1.5117C15.8052 2.37953 16.505 3.4619 16.7478 4.75881C17.9478 4.84933 18.9565 5.27932 19.7739 6.04878C20.5913 6.81823 21 7.73856 21 8.80977C21 9.94132 20.5436 10.9033 19.6309 11.6957C18.7182 12.4881 17.6094 12.884 16.3043 12.8834H5.86952Z" fill="white"/>
</svg>
