<svg width="40" height="40" viewBox="0 0 40 40" fill="none" xmlns="http://www.w3.org/2000/svg">
<path fill-rule="evenodd" clip-rule="evenodd" d="M34.95 6.21411L34.1275 6.08328L33.9117 5.27828L35.1525 4.94495L34.95 6.21411ZM23.9333 17.7391L23.2242 18.1758L23.2225 18.1741L23.22 18.1699L23.2117 18.1566L23.1833 18.1091C23.16 18.0691 23.125 18.0108 23.0833 17.9366C22.9666 17.7326 22.8541 17.5261 22.7458 17.3174C22.4033 16.6614 22.1044 15.9836 21.8508 15.2883C21.5692 14.5016 21.3275 13.6008 21.29 12.7291C21.2533 11.8608 21.415 10.9183 22.0617 10.1791C22.6425 9.51578 23.7375 8.90495 24.8883 8.37661C26.0808 7.82745 27.4842 7.30078 28.8133 6.84495C30.4597 6.28268 32.1227 5.77022 33.8 5.30828L33.8833 5.28495L33.9125 5.27661L34.1292 6.08245L34.9517 6.21328L34.9467 6.24411L34.9325 6.33245C34.8493 6.84368 34.7621 7.35425 34.6708 7.86411C34.4488 9.11795 34.2066 10.3681 33.9442 11.6141C33.6475 13.0149 33.3025 14.4833 32.9367 15.7124C32.7743 16.2747 32.5832 16.8282 32.3642 17.3708C32.1742 17.8291 31.9492 18.2741 31.6758 18.5874C31.0908 19.2558 30.18 19.4649 29.3842 19.5183C28.5542 19.5741 27.6342 19.4733 26.8067 19.3266C26.0687 19.1937 25.3378 19.024 24.6167 18.8183C24.3216 18.7352 24.0282 18.6463 23.7367 18.5516L23.6842 18.5333L23.67 18.5283L23.6658 18.5274H23.6642L23.9333 17.7391ZM23.9333 17.7391L23.2242 18.1758L23.3808 18.4299L23.6642 18.5274L23.9333 17.7391ZM24.4933 17.0449C25.3465 17.3112 26.215 17.5255 27.0942 17.6866C27.8642 17.8224 28.6342 17.8991 29.2725 17.8558C29.9467 17.8108 30.285 17.6458 30.4208 17.4908C30.5075 17.3908 30.6492 17.1541 30.8242 16.7324C31.021 16.2435 31.1926 15.7448 31.3383 15.2383C31.6858 14.0716 32.02 12.6524 32.3133 11.2699C32.5948 9.93239 32.8526 8.58995 33.0867 7.24328L32.8292 7.31828C31.905 7.59078 30.6567 7.97495 29.3542 8.42161C28.0492 8.86911 26.705 9.37495 25.5842 9.89078C24.4208 10.4258 23.6358 10.9116 23.3158 11.2774C23.06 11.5691 22.9283 12.0183 22.9558 12.6574C22.9825 13.2933 23.165 14.0158 23.42 14.7249C23.7119 15.5271 24.071 16.3032 24.4933 17.0449ZM8.55251 8.31161L8.33668 9.11661L7.51334 9.24745L7.31168 7.97911L8.55251 8.31161ZM16.6208 18.5891L17.33 19.0249L17.3317 19.0233L17.3333 19.0199L17.34 19.0091L17.3642 18.9691C17.4898 18.7551 17.6099 18.5378 17.7242 18.3174C17.9442 17.8941 18.225 17.3033 18.46 16.6499C18.6917 16.0033 18.8933 15.2541 18.9242 14.5241C18.9558 13.7966 18.8208 12.9849 18.2592 12.3433C17.7625 11.7749 16.8433 11.2683 15.91 10.8383C14.9342 10.3891 13.7883 9.95911 12.7058 9.58828C11.3651 9.13065 10.0109 8.71351 8.64501 8.33745L8.57668 8.31828L8.55251 8.31161L8.33668 9.11661L7.51334 9.24745L7.51751 9.27245L7.52918 9.34495L7.57418 9.61661C7.79903 10.9646 8.05215 12.3076 8.33334 13.6449C8.57501 14.7849 8.85668 15.9824 9.15501 16.9866C9.30501 17.4883 9.46168 17.9558 9.62584 18.3499C9.78168 18.7249 9.97251 19.1074 10.2125 19.3808C10.7292 19.9724 11.5233 20.1474 12.1808 20.1908C12.8742 20.2374 13.635 20.1533 14.3142 20.0341C15.1669 19.881 16.0079 19.6683 16.8308 19.3974L16.8733 19.3833L16.8858 19.3791L16.89 19.3774L16.6208 18.5891ZM16.6208 18.5891L17.33 19.0249L17.1733 19.2799L16.89 19.3774L16.6208 18.5891ZM16.06 17.8941C16.3856 17.3155 16.6635 16.7113 16.8908 16.0874C17.095 15.5183 17.2383 14.9474 17.2592 14.4524C17.2808 13.9541 17.1758 13.6358 17.005 13.4399C16.7692 13.1716 16.1608 12.7883 15.2133 12.3524C14.31 11.9366 13.2233 11.5274 12.165 11.1649C11.2431 10.8502 10.3145 10.5551 9.38001 10.2799L9.38334 10.3008C9.52501 11.1008 9.72668 12.1808 9.96418 13.2999C10.2017 14.4216 10.4725 15.5691 10.7525 16.5116C10.8933 16.9833 11.0317 17.3908 11.165 17.7108C11.3067 18.0499 11.4133 18.2224 11.4667 18.2841C11.535 18.3616 11.7558 18.4924 12.2925 18.5283C12.7933 18.5616 13.405 18.5016 14.025 18.3924C14.713 18.2684 15.3927 18.1025 16.06 17.8941ZM14.235 25.8383C14.0233 25.8499 13.92 25.8799 13.8933 25.8916C13.5158 26.0624 12.3692 26.4624 11.3792 26.7999C10.8708 26.9741 10.3833 27.1374 10.0233 27.2583L10 27.2666V31.7691C10.1467 31.7624 10.3042 31.7566 10.465 31.7508C11.155 31.7258 11.9758 31.7008 12.3317 31.7158C13.825 31.7749 14.9467 32.1283 15.985 32.4558L16.0075 32.4633C16.9808 32.7699 17.8825 33.0516 19.0633 33.1408C19.3967 33.1658 19.7208 33.1983 20.0233 33.2283H20.0275C21.1892 33.3449 21.9542 33.4033 22.5467 33.1883C23.0075 33.0208 24.695 32.2383 26.3967 31.3824C27.2383 30.9591 28.0633 30.5283 28.7192 30.1591C29.0483 29.9741 29.3275 29.8091 29.5417 29.6708C29.6483 29.6016 29.7333 29.5433 29.7983 29.4958C29.8239 29.477 29.8489 29.4576 29.8733 29.4374L29.8967 29.4174C29.98 29.3333 30.0683 29.0399 29.925 28.7641C29.8576 28.6351 29.7461 28.5346 29.6108 28.4808C29.4442 28.4083 29.1608 28.3524 28.7108 28.4266C27.6958 28.5933 26.4833 29.0816 25.2725 29.5741L25.2558 29.5816C24.6608 29.8233 24.0642 30.0658 23.535 30.2424C23.0267 30.4116 22.4625 30.5633 21.9708 30.5341C21.2958 30.4924 20.1117 30.3174 19.135 30.1591C18.5737 30.0684 18.0132 29.9734 17.4533 29.8741L17.345 29.8549L17.3067 29.8474L17.465 28.1941L21.2733 28.2399H21.2817C21.3262 28.2351 21.3702 28.2268 21.4133 28.2149C21.545 28.1816 21.7708 28.0991 22.055 27.8983C22.1425 27.8358 22.2575 27.7208 22.365 27.5666C22.4066 27.5062 22.4445 27.4433 22.4783 27.3783C22.014 27.3487 21.5527 27.2835 21.0983 27.1833C20.8509 27.1294 20.6055 27.0669 20.3625 26.9958L20.3342 26.9874L15.67 25.9491L15.6258 25.9416C15.3775 25.9004 15.1276 25.8698 14.8767 25.8499C14.6633 25.8322 14.4489 25.8283 14.235 25.8383ZM15.8333 25.1333L15.9842 24.3141L15.9992 24.3166L20.7642 25.3766L20.7992 25.3874L20.8058 25.3899L20.8375 25.3991L20.9692 25.4366C21.085 25.4683 21.2517 25.5116 21.45 25.5549C21.855 25.6424 22.3617 25.7233 22.83 25.7233C23.2992 25.7233 23.8092 25.8983 24.0842 26.3966C24.3192 26.8233 24.2608 27.2849 24.1783 27.5899C24.1018 27.8596 23.9876 28.1171 23.8392 28.3549C24.0925 28.2549 24.3617 28.1466 24.6442 28.0316L24.6958 28.0099C25.8442 27.5433 27.2208 26.9833 28.44 26.7824C29.8567 26.5508 30.9192 27.0591 31.405 27.9991C31.8333 28.8283 31.7383 29.9216 31.0842 30.5866C30.92 30.7533 30.6758 30.9224 30.4425 31.0733C30.1453 31.2614 29.843 31.4412 29.5358 31.6124C28.8483 31.9991 27.9975 32.4433 27.1442 32.8724C25.4592 33.7199 23.6842 34.5491 23.1142 34.7558C22.1258 35.1141 20.9825 34.9999 19.9667 34.8983L19.8608 34.8874C19.5534 34.8559 19.2456 34.8281 18.9375 34.8041C17.5542 34.6991 16.4942 34.3649 15.5258 34.0599L15.505 34.0533C14.4633 33.7249 13.525 33.4324 12.265 33.3816C11.9883 33.3708 11.2433 33.3908 10.525 33.4174C10.1205 33.4321 9.71605 33.4485 9.31168 33.4666L9.20418 33.4716L8.33251 33.5116V26.0649L9.06334 25.8224C9.65636 25.6254 10.2486 25.4259 10.84 25.2241C11.8767 24.8699 12.9217 24.5024 13.2067 24.3741C13.5125 24.2358 13.86 24.1908 14.1383 24.1741C14.4342 24.1574 14.7383 24.1699 15.0042 24.1899C15.3242 24.215 15.6428 24.2548 15.9592 24.3091L15.9767 24.3124H15.9817L15.9833 24.3133H15.985L15.8333 25.1333Z" fill="#4CAF50"/>
<path fill-rule="evenodd" clip-rule="evenodd" d="M29.2917 11.0333C29.3748 11.1044 29.4432 11.1913 29.4928 11.2888C29.5424 11.3863 29.5724 11.4927 29.5809 11.6018C29.5894 11.7109 29.5763 11.8206 29.5424 11.9247C29.5085 12.0288 29.4545 12.1251 29.3833 12.2083C26.8992 15.1066 23.8067 19.3541 22.4417 22.8066C22.4014 22.9084 22.3415 23.0013 22.2653 23.0799C22.1892 23.1585 22.0983 23.2213 21.9978 23.2648C21.8974 23.3083 21.7894 23.3316 21.6799 23.3333C21.5705 23.3351 21.4618 23.3152 21.36 23.275C21.2582 23.2347 21.1654 23.1748 21.0868 23.0986C21.0081 23.0225 20.9453 22.9316 20.9018 22.8311C20.8583 22.7307 20.835 22.6227 20.8333 22.5132C20.8316 22.4038 20.8514 22.2951 20.8917 22.1933C22.3608 18.4775 25.6008 14.06 28.1167 11.1241C28.2606 10.9564 28.4652 10.8527 28.6855 10.8358C28.9059 10.8189 29.1239 10.8903 29.2917 11.0341M12.8167 13.7066C12.7307 13.7745 12.659 13.8586 12.6056 13.9541C12.5522 14.0497 12.5181 14.1548 12.5053 14.2636C12.4926 14.3723 12.5013 14.4825 12.5312 14.5878C12.561 14.6932 12.6113 14.7916 12.6792 14.8775C14.5475 17.2483 16.5875 20.2825 17.5558 22.7991C17.639 23 17.7973 23.1604 17.9971 23.2462C18.1968 23.332 18.4222 23.3363 18.6251 23.2582C18.828 23.1801 18.9923 23.0259 19.0831 22.8283C19.1738 22.6308 19.1838 22.4056 19.1108 22.2008C18.0517 19.4475 15.8875 16.255 13.9875 13.8458C13.8508 13.6722 13.6507 13.5601 13.4313 13.534C13.2119 13.5079 12.9903 13.57 12.8167 13.7066Z" fill="#4CAF50"/>
<path d="M5 24.1666H10V35H5V24.1666Z" fill="#4CAF50"/>
</svg>
