<svg width="40" height="40" viewBox="0 0 40 40" fill="none" xmlns="http://www.w3.org/2000/svg">
<path d="M15.2083 15.0733L23.5216 30.2817C24.3183 31.74 24.4491 32.9233 22.7858 32.9258L5.31495 32.9533C4.18995 32.955 3.28995 32.2233 4.00662 30.9092L12.6466 15.0733C13.6016 13.3225 14.78 14.29 15.2083 15.0733Z" stroke="#4CAF50" stroke-linecap="round" stroke-linejoin="round"/>
<path d="M20.8684 25.4283L26.3559 18.0717M26.3559 18.0717L36.2501 32.8717L22.7859 32.9258M26.3559 18.0717V32.9117M7.38672 32.95L8.55839 29.7375H18.9701L20.6601 32.9292M29.1667 22.2758V32.9M13.8184 18.1808L10.3301 25.9483L17.5801 26.0033L13.8184 18.1808Z" stroke="#4CAF50" stroke-linecap="round" stroke-linejoin="round"/>
<path d="M26.7925 13.8883C28.6818 13.8883 30.2134 12.3567 30.2134 10.4675C30.2134 8.57819 28.6818 7.04663 26.7925 7.04663C24.9033 7.04663 23.3717 8.57819 23.3717 10.4675C23.3717 12.3567 24.9033 13.8883 26.7925 13.8883Z" stroke="#4CAF50" stroke-linecap="round" stroke-linejoin="round"/>
</svg>
