<svg width="36" height="33" viewBox="0 0 36 33" fill="none" xmlns="http://www.w3.org/2000/svg">
<path fill-rule="evenodd" clip-rule="evenodd" d="M16.975 23.1475L16.375 10.95H19.625L19 23.15L16.975 23.1475ZM17.96 27.9C17.7514 27.9032 17.5444 27.8636 17.3518 27.7836C17.1591 27.7036 16.9849 27.585 16.84 27.435C16.6908 27.2916 16.5725 27.1191 16.4925 26.9281C16.4126 26.7372 16.3725 26.532 16.375 26.325C16.375 25.89 16.53 25.5175 16.84 25.21C16.9857 25.0614 17.1602 24.944 17.3527 24.8649C17.5452 24.7858 17.7519 24.7467 17.96 24.75C18.3825 24.75 18.7475 24.9 19.06 25.205C19.37 25.51 19.525 25.88 19.525 26.325C19.528 26.5335 19.4876 26.7403 19.4062 26.9323C19.3249 27.1243 19.2044 27.2972 19.0525 27.44C18.9106 27.5861 18.7407 27.702 18.553 27.7811C18.3653 27.8601 18.1636 27.9005 17.96 27.9ZM2.99997 33C2.5662 33.0001 2.13986 32.8873 1.76287 32.6727C1.38588 32.4581 1.07121 32.1492 0.849775 31.7762C0.628344 31.4032 0.507777 30.979 0.499922 30.5453C0.492067 30.1116 0.597195 29.6833 0.804975 29.3025L15.805 1.80249C16.02 1.40808 16.3373 1.07889 16.7236 0.849538C17.1098 0.620185 17.5508 0.499146 18 0.499146C18.4492 0.499146 18.8901 0.620185 19.2764 0.849538C19.6626 1.07889 19.9799 1.40808 20.195 1.80249L35.195 29.3025C35.4028 29.6833 35.5079 30.1116 35.5 30.5453C35.4922 30.979 35.3716 31.4032 35.1502 31.7762C34.9287 32.1492 34.6141 32.4581 34.2371 32.6727C33.8601 32.8873 33.4338 33.0001 33 33H2.99997ZM2.99997 30.5H33L18 2.99999L2.99997 30.5Z" fill="#4CAF50"/>
</svg>
