<svg width="36" height="36" viewBox="0 0 36 36" fill="none" xmlns="http://www.w3.org/2000/svg">
<path fill-rule="evenodd" clip-rule="evenodd" d="M15.732 5.682C17.2087 4.20509 19.2115 3.37525 21.3 3.375H25.35C25.6484 3.375 25.9345 3.49353 26.1455 3.7045C26.3565 3.91548 26.475 4.20163 26.475 4.5V9.9C26.475 10.1984 26.3565 10.4845 26.1455 10.6955C25.9345 10.9065 25.6484 11.025 25.35 11.025H21.3C21.2705 11.025 21.2412 11.0308 21.2139 11.0421C21.1866 11.0534 21.1618 11.07 21.1409 11.0909C21.12 11.1118 21.1034 11.1366 21.0921 11.1639C21.0808 11.1912 21.075 11.2205 21.075 11.25V14.175H25.35C25.521 14.1749 25.6898 14.2138 25.8436 14.2887C25.9973 14.3637 26.1319 14.4727 26.2372 14.6075C26.3425 14.7423 26.4157 14.8993 26.4511 15.0666C26.4866 15.2339 26.4835 15.4071 26.442 15.573L25.092 20.973C25.0311 21.2165 24.8905 21.4326 24.6927 21.587C24.4948 21.7414 24.251 21.8251 24 21.825H21.075V31.5C21.075 31.7984 20.9565 32.0845 20.7455 32.2955C20.5345 32.5065 20.2484 32.625 19.95 32.625H14.55C14.2516 32.625 13.9655 32.5065 13.7545 32.2955C13.5435 32.0845 13.425 31.7984 13.425 31.5V21.825H10.5C10.2016 21.825 9.91548 21.7065 9.7045 21.4955C9.49353 21.2845 9.375 20.9984 9.375 20.7V15.3C9.375 15.1523 9.4041 15.006 9.46064 14.8695C9.51717 14.733 9.60004 14.609 9.7045 14.5045C9.80897 14.4 9.93299 14.3172 10.0695 14.2606C10.206 14.2041 10.3523 14.175 10.5 14.175H13.425V11.25C13.4252 9.16151 14.2551 7.15866 15.732 5.682ZM21.3 5.625C19.8082 5.625 18.3774 6.21763 17.3225 7.27252C16.2676 8.32742 15.675 9.75816 15.675 11.25V15.3C15.675 15.5984 15.5565 15.8845 15.3455 16.0955C15.1345 16.3065 14.8484 16.425 14.55 16.425H11.625V19.575H14.55C14.8484 19.575 15.1345 19.6935 15.3455 19.9045C15.5565 20.1155 15.675 20.4016 15.675 20.7V30.375H18.825V20.7C18.825 20.4016 18.9435 20.1155 19.1545 19.9045C19.3655 19.6935 19.6516 19.575 19.95 19.575H23.121L23.9085 16.425H19.95C19.6516 16.425 19.3655 16.3065 19.1545 16.0955C18.9435 15.8845 18.825 15.5984 18.825 15.3V11.25C18.825 10.5936 19.0858 9.96406 19.5499 9.49991C20.0141 9.03576 20.6436 8.775 21.3 8.775H24.225V5.625H21.3Z" fill="white"/>
</svg>
