<svg width="40" height="40" viewBox="0 0 40 40" fill="none" xmlns="http://www.w3.org/2000/svg">
<g clip-path="url(#clip0_18_45)">
<path d="M16.6667 8.88892H26.6667V11.1111H16.6667V8.88892Z" fill="#4CAF50"/>
<path d="M16.6667 13.3334H26.6667V15.5556H16.6667V13.3334Z" fill="#4CAF50"/>
<path d="M16.6667 17.7778H26.6667V20.0001H16.6667V17.7778Z" fill="#4CAF50"/>
<path d="M16.6667 22.2222H26.6667V24.4444H16.6667V22.2222Z" fill="#4CAF50"/>
<path d="M16.6667 26.6666H26.6667V28.8888H16.6667V26.6666Z" fill="#4CAF50"/>
<path d="M12.2222 8.88892H14.4445V11.1111H12.2222V8.88892Z" fill="#4CAF50"/>
<path d="M12.2222 13.3334H14.4445V15.5556H12.2222V13.3334Z" fill="#4CAF50"/>
<path d="M12.2222 17.7778H14.4445V20.0001H12.2222V17.7778Z" fill="#4CAF50"/>
<path d="M12.2222 22.2222H14.4445V24.4444H12.2222V22.2222Z" fill="#4CAF50"/>
<path d="M12.2222 26.6666H14.4445V28.8888H12.2222V26.6666Z" fill="#4CAF50"/>
<path d="M31.1111 2.22217H8.88888C8.29951 2.22217 7.73428 2.45629 7.31753 2.87304C6.90078 3.28979 6.66666 3.85502 6.66666 4.44439V35.5555C6.66666 36.1449 6.90078 36.7101 7.31753 37.1269C7.73428 37.5436 8.29951 37.7777 8.88888 37.7777H31.1111C31.7005 37.7777 32.2657 37.5436 32.6825 37.1269C33.0992 36.7101 33.3333 36.1449 33.3333 35.5555V4.44439C33.3333 3.85502 33.0992 3.28979 32.6825 2.87304C32.2657 2.45629 31.7005 2.22217 31.1111 2.22217ZM31.1111 35.5555H8.88888V4.44439H31.1111V35.5555Z" fill="#4CAF50"/>
</g>
<defs>
<clipPath id="clip0_18_45">
<rect width="40" height="40" fill="white"/>
</clipPath>
</defs>
</svg>
