<svg width="40" height="40" viewBox="0 0 40 40" fill="none" xmlns="http://www.w3.org/2000/svg">
<path d="M20.8333 38.3334C20.1389 38.3334 19.5489 38.0973 19.0633 37.625C18.5778 37.1528 18.3344 36.5695 18.3333 35.875C18.3333 35.5417 18.3961 35.2223 18.5216 34.9167C18.6472 34.6112 18.8344 34.3473 19.0833 34.125L20.8333 32.5L22.5833 34.125C22.8333 34.3473 23.0211 34.6112 23.1466 34.9167C23.2722 35.2223 23.3344 35.5417 23.3333 35.875C23.3333 36.5695 23.0905 37.1528 22.605 37.625C22.1194 38.0973 21.5289 38.3334 20.8333 38.3334ZM15.0833 35.8334L13.3333 34.0834L18.25 29.1667L20 30.9167L15.0833 35.8334ZM25.8333 33.3334L23.3333 30.8334L25.8333 28.3334L28.3333 30.8334L25.8333 33.3334ZM10.8333 33.3334L8.33331 30.8334L10.8333 28.3334L13.3333 30.8334L10.8333 33.3334ZM12.5 26.6667C9.9722 26.6667 7.81276 25.7712 6.02165 23.98C4.23054 22.1889 3.33442 20.0289 3.33331 17.5C3.33331 15.1945 4.0972 13.1806 5.62498 11.4584C7.15276 9.73615 9.04165 8.72227 11.2916 8.41671C12.1805 6.83338 13.3961 5.59004 14.9383 4.68671C16.4805 3.78338 18.1678 3.33226 20 3.33338C22.5 3.33338 24.6739 4.13226 26.5216 5.73004C28.3694 7.32782 29.4872 9.3206 29.875 11.7084C31.7916 11.875 33.4028 12.6667 34.7083 14.0834C36.0139 15.5 36.6666 17.1945 36.6666 19.1667C36.6666 21.25 35.9378 23.0212 34.48 24.48C33.0222 25.9389 31.2511 26.6678 29.1666 26.6667H12.5ZM12.5 23.3334H29.1666C30.3333 23.3334 31.3194 22.9306 32.125 22.125C32.9305 21.3195 33.3333 20.3334 33.3333 19.1667C33.3333 18 32.9305 17.0139 32.125 16.2084C31.3194 15.4028 30.3333 15 29.1666 15H26.6666V13.3334C26.6666 11.5 26.0139 9.9306 24.7083 8.62504C23.4028 7.31949 21.8333 6.66671 20 6.66671C18.6666 6.66671 17.4516 7.02782 16.355 7.75004C15.2583 8.47227 14.4316 9.44449 13.875 10.6667L13.4583 11.6667H12.4166C10.8333 11.7223 9.47942 12.3128 8.35498 13.4384C7.23054 14.5639 6.66776 15.9178 6.66665 17.5C6.66665 19.1112 7.23609 20.4862 8.37498 21.625C9.51387 22.7639 10.8889 23.3334 12.5 23.3334Z" fill="#4CAF50" fill-opacity="0.960784"/>
</svg>
